<svg xmlns="http://www.w3.org/2000/svg" width="16.675" height="14.591" viewBox="0 0 16.675 14.591">
  <path id="Icon_awesome-bath" data-name="Icon awesome-bath" d="M15.894,9.546H2.606V4.856A1.042,1.042,0,0,1,4.528,4.3,2.214,2.214,0,0,0,4.75,7a.391.391,0,0,0,.016.535l.368.368a.391.391,0,0,0,.553,0l3.1-3.1a.391.391,0,0,0,0-.553L8.414,3.89a.391.391,0,0,0-.535-.016,2.21,2.21,0,0,0-2.09-.5A2.6,2.6,0,0,0,1.042,4.856v4.69H.782A.782.782,0,0,0,0,10.327v.521a.782.782,0,0,0,.782.782h.261v1.042A3.119,3.119,0,0,0,2.084,15v1.057a.782.782,0,0,0,.782.782h.521a.782.782,0,0,0,.782-.782V15.8h8.338v.261a.782.782,0,0,0,.782.782h.521a.782.782,0,0,0,.782-.782V15a3.119,3.119,0,0,0,1.042-2.33V11.63h.261a.782.782,0,0,0,.782-.782v-.521A.782.782,0,0,0,15.894,9.546Z" transform="translate(0 -2.25)"/>
</svg>
