<svg xmlns="http://www.w3.org/2000/svg" width="16.272" height="12.785" viewBox="0 0 16.272 12.785">
  <g id="Icon_ionic-ios-bed" data-name="Icon ionic-ios-bed" transform="translate(0)">
    <path id="Path_29" data-name="Path 29" d="M17.73,14.625h-.015a.794.794,0,0,0-.792.792.081.081,0,0,1-.08.08H3.928a.081.081,0,0,1-.08-.08.794.794,0,0,0-.792-.792H3.042a.794.794,0,0,0-.792.792v6.552a.794.794,0,0,0,.792.792h.015a.794.794,0,0,0,.792-.792v-.225a.146.146,0,0,1,.145-.145H16.779a.146.146,0,0,1,.145.145v.225a.794.794,0,0,0,.792.792h.015a.794.794,0,0,0,.792-.792V15.417A.794.794,0,0,0,17.73,14.625Z" transform="translate(-2.25 -9.976)"/>
    <path id="Path_30" data-name="Path 30" d="M5.634,10.492h.817a.146.146,0,0,0,.145-.145V9.875a.583.583,0,0,1,.581-.581h3.541a.583.583,0,0,1,.581.581v.472a.146.146,0,0,0,.145.145h.872a.146.146,0,0,0,.145-.145V9.875a.583.583,0,0,1,.581-.581h3.541a.583.583,0,0,1,.581.581v.472a.146.146,0,0,0,.145.145h.817a.291.291,0,0,0,.291-.291V6.787a1.166,1.166,0,0,0-1.162-1.162H6.506A1.166,1.166,0,0,0,5.344,6.787V10.2A.291.291,0,0,0,5.634,10.492Z" transform="translate(-3.746 -5.625)"/>
  </g>
</svg>
