<svg xmlns="http://www.w3.org/2000/svg" width="52" height="52" viewBox="0 0 52 52">
  <g id="edit" transform="translate(-323 -220)">
    <rect id="Rectangle_12" data-name="Rectangle 12" width="52" height="52" rx="3" transform="translate(323 220)" fill="#575c58"/>
    <g id="Icon_ionic-ios-chatbubbles" data-name="Icon ionic-ios-chatbubbles" transform="translate(336 233)">
      <path id="Path_39" data-name="Path 39" d="M32.085,24.084a1.84,1.84,0,0,1,.251-.927,2.558,2.558,0,0,1,.16-.236,12.31,12.31,0,0,0,2.1-6.86A12.923,12.923,0,0,0,21.4,3.375a13.105,13.105,0,0,0-12.938,10.1,12.208,12.208,0,0,0-.281,2.6A12.887,12.887,0,0,0,21.168,28.916a15.646,15.646,0,0,0,3.586-.585c.858-.236,1.709-.547,1.93-.631a2.008,2.008,0,0,1,.707-.129,1.975,1.975,0,0,1,.767.152l4.307,1.527a1.027,1.027,0,0,0,.3.076.6.6,0,0,0,.608-.608.976.976,0,0,0-.038-.205Z" transform="translate(-8.177 -3.375)" fill="#fff"/>
    </g>
  </g>
</svg>
