<svg xmlns="http://www.w3.org/2000/svg" width="50" height="42.51" viewBox="0 0 50 42.51">
  <path id="Icon_awesome-home" data-name="Icon awesome-home" d="M25.662,13.282l16,14.41V43.245a1.458,1.458,0,0,1-1.389,1.518l-9.727-.028a1.459,1.459,0,0,1-1.382-1.518V34.135a1.458,1.458,0,0,0-1.389-1.518H22.224a1.458,1.458,0,0,0-1.389,1.518v9.076a1.594,1.594,0,0,1-.405,1.077,1.332,1.332,0,0,1-.984.446l-9.723.029a1.458,1.458,0,0,1-1.389-1.518V27.682l16-14.4A.989.989,0,0,1,25.662,13.282ZM.383,23.076l7.256-6.54V3.392A1.093,1.093,0,0,1,8.681,2.254h4.861a1.093,1.093,0,0,1,1.042,1.139v6.891l7.771-6.99a3.9,3.9,0,0,1,5.295,0L49.621,23.076a1.213,1.213,0,0,1,.139,1.6l-2.213,2.942a1.019,1.019,0,0,1-.7.41.982.982,0,0,1-.763-.256L25.662,9.391a.989.989,0,0,0-1.328,0L3.916,27.777a.982.982,0,0,1-1.467-.152L.236,24.683A1.213,1.213,0,0,1,0,23.846a1.172,1.172,0,0,1,.379-.77Z" transform="translate(0.001 -2.254)" fill="#ffba00"/>
</svg>
