<svg xmlns="http://www.w3.org/2000/svg" width="50" height="42.17" viewBox="0 0 50 42.17">
  <path id="Icon_simple-wechat" data-name="Icon simple-wechat" d="M49.043,25.73A13.9,13.9,0,0,0,42.6,19.059a17.479,17.479,0,0,0-15.893.064,13.349,13.349,0,0,0-7.039,8.811,11.472,11.472,0,0,0,1.417,8.386A15.2,15.2,0,0,0,31.441,43.2a18.778,18.778,0,0,0,9.037-.6c1.754.69,3.317,1.808,5.017,2.638-.44-1.5-.908-2.977-1.408-4.45a14.311,14.311,0,0,0,4.675-5.248A11.547,11.547,0,0,0,49.043,25.73ZM28.368,5.689A20.771,20.771,0,0,0,11.106,4.324a17.615,17.615,0,0,0-9.054,7.24A13.766,13.766,0,0,0,.388,21.974a15.924,15.924,0,0,0,6.8,9.343c-.625,1.8-1.219,3.6-1.781,5.409,2.031-1.08,4.062-2.208,6.1-3.3a22.293,22.293,0,0,0,7.625,1.1,12.812,12.812,0,0,1,3.623-13.772,17.832,17.832,0,0,1,13.533-4.512A15.993,15.993,0,0,0,28.312,5.691h.056Zm3.61,21.148a2.059,2.059,0,0,1-3.364.745,2.118,2.118,0,0,1,.74-3.436A2.1,2.1,0,0,1,31.979,26.837Zm9.989.195a2.078,2.078,0,0,1-3.283.572,3.193,3.193,0,0,1-.717-1.545,2.326,2.326,0,0,1,1.937-2.022,2.117,2.117,0,0,1,2.031,3h.031ZM27.062,13.368a2.572,2.572,0,0,1-4.156,1.924,2.624,2.624,0,0,1,.712-4.459,2.568,2.568,0,0,1,3.439,2.509l0,.025Zm-12.623.517a2.561,2.561,0,0,1-4.054,1.435,2.65,2.65,0,0,1,.719-4.512A2.6,2.6,0,0,1,14.44,13.885Z" transform="translate(0.001 -3.06)" fill="#a5a5a5"/>
</svg>
