<svg xmlns="http://www.w3.org/2000/svg" width="42.796" height="36.282" viewBox="0 0 42.796 36.282">
  <g id="filter_filters_funnel_list_navigation_sort_sorting_icon_123212" transform="translate(-48.425 431.958)">
    <path id="Path_43" data-name="Path 43" d="M57.071-431.808a5.186,5.186,0,0,0-3.144,2.474l-.34.66-2.082.031c-2.278.031-2.34.052-2.855.742a1.865,1.865,0,0,0,0,1.773c.515.691.577.711,2.855.742l2.082.031.34.66a5.088,5.088,0,0,0,4.35,2.629,5.076,5.076,0,0,0,4.35-2.639l.34-.66,13.628-.021c13.576-.031,13.628-.031,13.906-.247a1.455,1.455,0,0,0,.711-1.381A1.455,1.455,0,0,0,90.5-428.4c-.278-.216-.33-.216-13.906-.247l-13.628-.02-.34-.66A4.99,4.99,0,0,0,57.071-431.808Zm1.856,3.288a1.619,1.619,0,0,1,.495,2.649,1.554,1.554,0,0,1-2.289,0A1.628,1.628,0,0,1,58.927-428.519Z"/>
    <path id="Path_44" data-name="Path 44" d="M80.23-303.808a5.166,5.166,0,0,0-3.144,2.484l-.34.66-13.628.021c-13.576.031-13.628.031-13.906.247a1.456,1.456,0,0,0-.711,1.381,1.456,1.456,0,0,0,.711,1.381c.278.216.33.216,13.906.247l13.628.021.34.66a5.076,5.076,0,0,0,4.35,2.639,5.088,5.088,0,0,0,4.35-2.629l.34-.66,2.082-.031c2.278-.031,2.34-.052,2.855-.742a1.865,1.865,0,0,0,0-1.773c-.515-.691-.577-.711-2.855-.742l-2.082-.031-.34-.66A5,5,0,0,0,80.23-303.808Zm1.856,3.288a1.619,1.619,0,0,1,.495,2.649,1.554,1.554,0,0,1-2.289,0A1.628,1.628,0,0,1,82.085-300.52Z" transform="translate(-0.067 -114.805)"/>
    <path id="Path_45" data-name="Path 45" d="M63.736-175.808a5.166,5.166,0,0,0-3.144,2.484l-.34.649-5.381.031c-5.247.031-5.381.031-5.659.247a1.456,1.456,0,0,0-.711,1.381,1.456,1.456,0,0,0,.711,1.381c.278.216.412.216,5.659.247l5.381.031.34.649a5.076,5.076,0,0,0,4.35,2.639,5.076,5.076,0,0,0,4.35-2.639l.34-.66,10.329-.021c10.247-.031,10.329-.031,10.608-.247a1.456,1.456,0,0,0,.711-1.381,1.456,1.456,0,0,0-.711-1.381c-.278-.216-.361-.216-10.608-.247l-10.329-.021-.34-.66A4.99,4.99,0,0,0,63.736-175.808Zm1.856,3.288a1.619,1.619,0,0,1,.495,2.649,1.554,1.554,0,0,1-2.289,0A1.628,1.628,0,0,1,65.592-172.519Z" transform="translate(-0.067 -229.61)"/>
  </g>
</svg>
