<svg xmlns="http://www.w3.org/2000/svg" width="39.547" height="39.127" viewBox="0 0 39.547 39.127">
  <g id="deal" transform="translate(0 0)">
    <path id="Path_8" data-name="Path 8" d="M170.538-450.647c-2.292,1.239-4.23,2.331-4.3,2.42a.654.654,0,0,0,.512,1.023,1.847,1.847,0,0,0,.639-.2,3.031,3.031,0,0,1,.443-.2c.03,0,.049,2.076.049,4.623,0,4.5.01,4.633.2,4.82s.325.2,2.558.2h2.371l.236-.246c.246-.236.246-.246.246-2.262v-2.017h2.951v2.007c0,1.879.01,2.017.207,2.263l.2.256h2.39c2.371,0,2.39,0,2.6-.226s.216-.246.216-4.82c0-2.528.02-4.594.039-4.594s.275.108.551.236a1.444,1.444,0,0,0,.679.187.708.708,0,0,0,.5-.669.706.706,0,0,0-.167-.462c-.3-.256-8.578-4.6-8.765-4.594C174.8-452.9,172.84-451.887,170.538-450.647Zm8.489,1.4,1.643.885v9.03h-2.853V-441.4c0-1.938-.01-2.076-.2-2.263s-.325-.2-2.656-.2-2.469.01-2.656.2-.2.325-.2,2.263v2.066h-2.853l.02-4.545.03-4.535,2.8-1.505,2.8-1.505,1.23.649C176.824-450.421,178.112-449.733,179.027-449.251Z" transform="translate(-155.181 452.9)" fill="#ffba00"/>
    <path id="Path_9" data-name="Path 9" d="M55.139-327.754a.538.538,0,0,0-.02.875c.118.128,1.977,1.308,4.132,2.617a30.7,30.7,0,0,1,3.836,2.489c-.157.275-5.961,8.981-6.03,9.06a1.388,1.388,0,0,1-.679-.275c-.718-.443-1.151-.452-1.377-.049-.315.561-.216.649,2.922,2.715,1.6,1.053,2.981,1.948,3.04,1.967.3.118.62-.1,1.072-.728.256-.374.5-.708.541-.757.079-.089,3.512,3.03,7.053,6.414a24.3,24.3,0,0,0,2.43,2.144,1.919,1.919,0,0,0,2.1-.5c.216-.266.216-.266.61-.108a2.07,2.07,0,0,0,2.567-.875c.177-.275.226-.3.8-.3a2.025,2.025,0,0,0,2.125-1.908c.039-.541.069-.59.334-.708a2.142,2.142,0,0,0,1.279-1.653c.02-.3.128-.364,2.292-1.554,1.239-.679,2.292-1.249,2.322-1.269a4.081,4.081,0,0,1,.63.807c.58.846.777,1.023,1.092,1.023a72.521,72.521,0,0,0,6.138-4.043.65.65,0,0,0-.551-.974,2.264,2.264,0,0,0-.836.364c-.344.207-.62.325-.669.266-.148-.157-6.01-8.981-6.03-9.089-.02-.049,1.761-1.19,3.954-2.538,4.259-2.607,4.417-2.725,4.132-3.236a.686.686,0,0,0-.9-.334c-.128.059-3.1,1.879-6.62,4.023-5.184,3.167-6.4,3.954-6.483,4.171s-.039.354.216.767l.3.492H77.43c-3.65,0-4.259.059-5.056.462l-.482.246-1.594-.413c-.866-.226-1.6-.433-1.623-.452a1.522,1.522,0,0,1,.2-.482c.413-.767,1.407-.069-10.112-7.092-1.643-.994-3.069-1.81-3.177-1.81A.752.752,0,0,0,55.139-327.754Zm10.8,7.565,1.436.875-.718,1.043c-.393.571-1.79,2.617-3.108,4.535s-2.44,3.551-2.5,3.62c-.108.108-.384-.039-1.5-.777-.748-.492-1.377-.915-1.4-.925-.079-.069,6.178-9.316,6.276-9.276C64.475-321.075,65.153-320.672,65.94-320.189ZM88.1-316.481c1.692,2.508,3.079,4.584,3.079,4.614a14.3,14.3,0,0,1-1.387.964c-1.131.738-1.417.885-1.515.787-.059-.069-1.19-1.7-2.5-3.62s-2.715-3.964-3.108-4.535l-.718-1.033,1.446-.9a13.637,13.637,0,0,1,1.535-.875C84.994-321.065,86.421-319,88.1-316.481Zm-18.838-.531,1.377.364-1.328,1.328a11.239,11.239,0,0,0-1.485,1.7,2.308,2.308,0,0,0,1.023,2.813,3.863,3.863,0,0,0,2.567.748c1.22,0,1.594-.157,3.522-1.436,1.505-.994,1.515-1,1.672-.8.1.118.984,1.121,1.987,2.243s1.849,2.125,1.9,2.233c.157.443-.413,1.023-.9.9a16.187,16.187,0,0,1-1.9-1.938,21.361,21.361,0,0,0-1.9-1.967.652.652,0,0,0-.9.748,25.283,25.283,0,0,0,2.026,2.43c1.712,1.918,1.967,2.243,1.967,2.528a.719.719,0,0,1-1.161.551c-.1-.089-1.131-1.23-2.282-2.528s-2.164-2.42-2.243-2.489a.854.854,0,0,0-.925.049.7.7,0,0,0-.177.462c0,.256.334.669,2.066,2.617,1.79,2.007,2.066,2.351,2.066,2.626a.715.715,0,0,1-1.062.63c-.079-.039-1.141-1.2-2.371-2.577-1.928-2.164-2.272-2.5-2.538-2.528a.646.646,0,0,0-.718.659c0,.226.344.669,1.771,2.262.964,1.082,1.81,2.066,1.869,2.174a.476.476,0,0,1-.443.669,11.654,11.654,0,0,1-1.987-1.712c-.964-.925-2.99-2.823-4.505-4.22s-2.745-2.6-2.745-2.666c.02-.177,4.191-6.237,4.3-6.237C67.859-317.376,68.518-317.209,69.265-317.012Zm14.047,2.105c.816,1.2,1.476,2.194,1.466,2.2s-1.692-.285-3.718-.659A32.449,32.449,0,0,0,76.781-314c-.571.03-.649.069-2.381,1.22-1.958,1.3-2.39,1.476-3.345,1.377a3.271,3.271,0,0,1-1.8-.826,1.109,1.109,0,0,1-.2-.58c0-.3.167-.492,1.6-1.9,1.9-1.869,2.026-1.967,2.666-2.194.443-.148.954-.167,4.5-.177h3.994Zm-1.279,3.128c1.8.325,3.3.6,3.305.62.039.039-3.659,2.085-3.836,2.125a38.858,38.858,0,0,1-3.1-3.354c0-.03.079-.03.177-.01S80.224-312.094,82.034-311.779Z" transform="translate(-54.882 340.286)" fill="#ffba00"/>
  </g>
</svg>
