<?xml version="1.0" standalone="no"?>
<svg version="1.0" xmlns="http://www.w3.org/2000/svg"
 width="512.000000pt" height="512.000000pt" viewBox="0 0 512.000000 512.000000"
 preserveAspectRatio="xMidYMid meet">

<g transform="translate(0.000000,512.000000) scale(0.100000,-0.100000)"
fill="#000000" stroke="#000000">
<path d="M2459 4527 c-30 -18 -508 -342 -1064 -720 -646 -439 -1018 -698
-1032 -718 -27 -38 -31 -115 -8 -159 34 -66 144 -92 212 -51 17 11 406 275
865 587 458 312 899 613 981 668 l147 100 213 -144 c116 -79 565 -384 995
-677 431 -294 795 -538 809 -544 64 -24 151 2 184 55 27 44 25 122 -4 164 -14
21 -372 270 -1032 719 -555 378 -1034 702 -1064 720 -41 25 -66 33 -101 33
-35 0 -60 -8 -101 -33z"/>
<path d="M3520 4532 c-43 -20 -71 -48 -86 -87 -20 -55 -13 -103 23 -146 46
-54 71 -59 292 -59 l200 0 3 -144 c3 -127 5 -148 24 -172 53 -71 130 -92 198
-52 72 42 76 61 76 329 0 228 -1 237 -22 269 -47 68 -58 70 -393 69 -165 0
-307 -3 -315 -7z"/>
<path d="M950 2881 c-19 -10 -44 -30 -55 -45 -20 -27 -20 -39 -23 -1100 l-2
-1073 22 -33 c13 -19 39 -43 58 -54 35 -21 39 -21 1610 -21 1571 0 1575 0
1610 21 19 11 45 35 57 54 l23 33 0 1067 0 1067 -22 33 c-48 70 -131 88 -203
45 -79 -46 -75 17 -75 -1060 l0 -955 -1390 0 -1390 0 -2 969 c-3 966 -3 970
-24 998 -52 70 -126 91 -194 54z"/>
</g>
</svg>
