<svg xmlns="http://www.w3.org/2000/svg" width="17.483" height="12.238" viewBox="0 0 17.483 12.238">
  <path id="Icon_awesome-swimming-pool" data-name="Icon awesome-swimming-pool" d="M17.046,12.74h-.437a2.3,2.3,0,0,1-1.532-.489,1.294,1.294,0,0,0-.868-.385h-.445a1.294,1.294,0,0,0-.868.385,2.3,2.3,0,0,1-1.532.489,2.3,2.3,0,0,1-1.532-.489,1.294,1.294,0,0,0-.868-.385H8.518a1.294,1.294,0,0,0-.868.385,2.3,2.3,0,0,1-1.532.489,2.3,2.3,0,0,1-1.532-.489,1.294,1.294,0,0,0-.868-.385H3.274a1.294,1.294,0,0,0-.868.385,2.3,2.3,0,0,1-1.532.489H.437A.437.437,0,0,0,0,13.177v.874a.437.437,0,0,0,.437.437H.874a4.073,4.073,0,0,0,2.622-.87,4.071,4.071,0,0,0,2.622.87,4.073,4.073,0,0,0,2.622-.87,4.071,4.071,0,0,0,2.622.87,4.073,4.073,0,0,0,2.622-.87,4.071,4.071,0,0,0,2.622.87h.437a.437.437,0,0,0,.437-.437v-.874A.437.437,0,0,0,17.046,12.74ZM6.119,11.865V9.243h5.245v2.622a1.5,1.5,0,0,0,.939-.257,2.361,2.361,0,0,1,.809-.494V4.872a.874.874,0,1,1,1.748,0v.437a.437.437,0,0,0,.437.437h.874a.437.437,0,0,0,.437-.437V4.872a2.622,2.622,0,1,0-5.245,0V7.495H6.119V4.872a.874.874,0,1,1,1.748,0v.437a.437.437,0,0,0,.437.437h.874a.437.437,0,0,0,.437-.437V4.872a2.622,2.622,0,0,0-5.245,0v6.242a2.366,2.366,0,0,1,.809.494A1.494,1.494,0,0,0,6.119,11.865Z" transform="translate(0 -2.25)"/>
</svg>
