<?xml version="1.0" standalone="no"?>
<!DOCTYPE svg PUBLIC "-//W3C//DTD SVG 20010904//EN"
 "http://www.w3.org/TR/2001/REC-SVG-20010904/DTD/svg10.dtd">
<svg version="1.0" xmlns="http://www.w3.org/2000/svg"
 width="777.000000pt" height="788.000000pt" viewBox="0 0 777.000000 788.000000"
 preserveAspectRatio="xMidYMid meet">

<g transform="translate(0.000000,788.000000) scale(0.100000,-0.100000)"
fill="#000000" stroke="none">
<path d="M6060 7752 c-8 -2 -23 -11 -32 -20 -16 -13 -18 -37 -18 -217 0 -188
1 -203 20 -220 10 -9 31 -17 45 -17 14 0 35 8 45 17 19 17 20 32 20 220 0 180
-2 204 -17 217 -23 19 -44 26 -63 20z"/>
<path d="M5448 7584 c-34 -18 -44 -54 -26 -91 49 -98 183 -315 200 -324 42
-22 97 11 98 60 0 28 -171 327 -202 354 -24 21 -35 21 -70 1z"/>
<path d="M6641 7587 c-13 -7 -61 -77 -117 -172 -103 -176 -110 -202 -62 -238
52 -39 71 -21 180 167 54 92 98 176 98 186 0 23 -29 57 -55 64 -11 3 -31 0
-44 -7z"/>
<path d="M5995 7229 c-297 -28 -551 -245 -633 -541 -24 -87 -23 -288 2 -378
70 -254 274 -454 532 -521 85 -22 259 -27 324 -10 109 29 144 42 211 77 52 27
99 64 159 124 149 148 209 287 217 495 6 146 -15 241 -80 368 -61 120 -189
246 -313 309 -132 67 -265 91 -419 77z"/>
<path d="M4997 7142 c-22 -24 -22 -75 1 -94 26 -23 313 -188 337 -194 51 -13
96 65 63 108 -7 9 -84 57 -171 107 -163 94 -200 106 -230 73z"/>
<path d="M6917 7066 c-88 -51 -163 -100 -169 -109 -25 -45 26 -120 69 -102 10
5 20 9 23 9 3 1 76 42 163 91 122 70 159 96 164 115 9 32 5 51 -14 73 -30 32
-72 19 -236 -77z"/>
<path d="M1975 7115 c-145 -18 -272 -47 -408 -93 l-112 -37 105 -6 c324 -18
696 -254 1069 -678 177 -202 390 -507 520 -743 23 -43 45 -78 48 -78 15 0 870
435 881 448 23 30 13 73 -43 167 -157 268 -382 505 -644 678 -112 75 -156 99
-165 90 -3 -4 -6 -1 -6 5 0 6 -44 32 -97 57 -178 84 -396 150 -591 181 -142
21 -424 26 -557 9z"/>
<path d="M1045 6773 c-515 -344 -855 -903 -926 -1523 -19 -169 -7 -476 26
-630 31 -148 102 -365 153 -470 44 -89 70 -103 130 -73 20 11 225 114 455 229
229 115 415 214 413 219 -12 25 -108 242 -116 260 -19 42 -109 294 -133 375
-63 202 -109 417 -138 640 -19 139 -16 434 5 549 22 122 70 267 112 338 19 30
34 59 34 63 0 5 3 10 8 12 9 4 57 58 51 58 -2 0 -36 -21 -74 -47z"/>
<path d="M1409 6807 c-183 -52 -300 -236 -340 -535 -17 -126 -6 -426 21 -582
57 -329 173 -699 320 -1017 l38 -82 325 165 c179 90 329 164 334 164 4 0 72
-127 150 -283 79 -155 228 -451 333 -657 105 -206 248 -487 317 -625 70 -137
129 -252 132 -255 3 -3 88 -169 188 -370 l182 -365 -1615 -3 -1614 -2 0 -140
0 -140 3735 0 3735 0 0 140 0 140 -1961 2 -1960 3 -105 205 c-58 113 -164 321
-235 463 -72 141 -134 257 -138 257 -4 0 -8 6 -8 13 0 11 -256 529 -273 552
-15 21 -600 1183 -600 1193 0 6 150 86 333 177 182 92 335 170 339 174 18 17
-276 475 -428 666 -110 138 -382 411 -492 494 -228 172 -402 250 -572 257 -60
3 -112 -1 -141 -9z"/>
<path d="M4840 6550 c-11 -11 -20 -33 -20 -50 0 -17 9 -39 20 -50 19 -19 33
-20 215 -20 195 0 196 0 220 25 14 13 25 34 25 45 0 12 -11 32 -25 45 -24 25
-25 25 -220 25 -182 0 -196 -1 -215 -20z"/>
<path d="M6875 6545 c-14 -13 -25 -33 -25 -45 0 -11 11 -32 25 -45 24 -25 25
-25 218 -25 174 0 197 2 218 18 15 13 22 30 22 52 0 22 -7 39 -22 52 -21 16
-44 18 -218 18 -193 0 -194 0 -218 -25z"/>
<path d="M5310 6137 c-76 -40 -316 -182 -322 -191 -4 -6 -8 -25 -8 -43 0 -34
29 -63 64 -63 20 0 326 171 351 197 24 24 19 69 -11 92 -31 24 -40 25 -74 8z"/>
<path d="M6767 6130 c-31 -24 -36 -69 -12 -93 29 -30 333 -197 357 -197 26 0
54 24 59 50 10 47 -9 64 -169 157 -88 51 -170 95 -184 98 -16 4 -33 -1 -51
-15z"/>
<path d="M5624 5828 c-19 -9 -186 -277 -207 -332 -10 -26 5 -60 36 -81 49 -32
79 0 187 200 18 33 41 72 52 87 10 15 22 43 25 61 4 28 1 37 -22 55 -30 24
-40 26 -71 10z"/>
<path d="M6452 5817 c-12 -13 -22 -33 -22 -46 0 -21 167 -321 195 -350 22 -23
75 -18 97 8 10 13 18 32 18 42 0 24 -175 327 -202 352 -28 24 -60 21 -86 -6z"/>
<path d="M6035 5705 c-25 -24 -25 -25 -25 -223 0 -185 1 -200 20 -217 10 -9
31 -17 45 -17 14 0 35 8 45 17 19 17 20 32 20 221 l0 203 -26 20 c-34 27 -50
26 -79 -4z"/>
<path d="M7160 1900 c-197 -27 -337 -109 -565 -331 -98 -94 -175 -160 -220
-187 -155 -92 -294 -93 -455 -5 -76 41 -122 77 -245 191 -307 287 -615 366
-912 236 -108 -48 -221 -133 -357 -268 -72 -72 -159 -150 -194 -173 -230 -153
-439 -113 -697 135 -169 163 -251 225 -380 289 -120 60 -191 77 -320 77 -129
0 -201 -17 -320 -75 -111 -54 -200 -123 -340 -265 -66 -66 -141 -135 -168
-153 -170 -115 -318 -130 -482 -48 -93 46 -140 82 -259 197 -179 172 -292 249
-446 305 -107 39 -281 46 -396 17 -71 -18 -215 -79 -237 -101 -4 -4 -6 -87 -5
-184 l3 -176 65 55 c36 30 101 73 145 94 217 107 394 55 653 -192 170 -162
244 -217 374 -277 109 -51 198 -71 305 -71 228 1 402 89 647 332 76 75 167
156 201 178 118 77 237 103 343 76 130 -33 232 -101 416 -275 65 -62 159 -139
207 -171 295 -194 602 -185 889 25 36 27 119 103 186 170 171 172 265 232 401
254 155 24 298 -42 499 -230 168 -158 299 -242 454 -291 63 -19 95 -23 200
-22 107 0 136 4 206 27 74 25 205 95 264 142 13 11 92 85 175 165 217 208 306
255 470 248 109 -5 181 -34 298 -120 42 -32 79 -58 82 -58 3 0 4 78 3 173 l-3
172 -85 42 c-125 62 -277 90 -400 73z"/>
<path d="M7102 1031 c-64 -17 -180 -62 -199 -79 -10 -9 -25 -18 -33 -20 -36
-8 -155 -106 -270 -222 -69 -69 -154 -144 -188 -167 -160 -107 -308 -120 -467
-40 -87 43 -130 75 -241 177 -174 161 -284 233 -437 287 -97 34 -262 43 -370
19 -160 -36 -286 -115 -482 -306 -77 -75 -162 -151 -190 -169 -27 -19 -58 -41
-68 -49 -10 -9 -25 -17 -35 -18 -9 -2 -42 -10 -72 -19 -70 -21 -174 -15 -253
15 -89 33 -189 106 -336 244 -73 69 -138 123 -142 120 -5 -3 -9 -1 -9 4 0 15
-115 91 -193 127 -216 100 -429 94 -642 -17 -94 -49 -159 -101 -315 -253 -201
-196 -307 -255 -457 -255 -141 0 -266 68 -455 246 -157 149 -240 211 -363 269
-213 101 -420 101 -633 -1 l-92 -44 0 -186 0 -186 59 54 c111 99 208 147 322
155 158 13 295 -57 502 -256 172 -165 291 -246 438 -297 98 -34 280 -44 381
-20 164 38 289 118 488 312 80 77 167 155 193 173 156 106 303 121 460 48 90
-42 145 -84 281 -214 130 -124 190 -170 292 -229 81 -46 228 -99 250 -90 8 3
16 1 19 -4 4 -6 50 -10 103 -9 234 2 416 95 647 330 130 132 186 176 280 221
65 31 77 33 175 33 97 0 110 -2 173 -32 102 -48 161 -91 287 -208 247 -230
437 -315 673 -302 216 12 383 101 602 322 121 123 178 170 245 206 25 13 48
29 52 34 4 6 8 7 8 3 0 -3 21 0 47 8 134 41 286 -1 445 -123 31 -23 59 -43 62
-43 3 0 6 76 6 170 l0 169 -44 26 c-24 14 -81 40 -127 57 -76 28 -97 31 -214
34 -71 2 -145 -1 -163 -5z"/>
</g>
</svg>
