<svg xmlns="http://www.w3.org/2000/svg" width="150.686" height="142.868" viewBox="0 0 150.686 142.868">
  <path id="Icon_awesome-user-circle" data-name="Icon awesome-user-circle" d="M75.343.563C33.722.563,0,32.535,0,72s33.722,71.434,75.343,71.434S150.686,111.458,150.686,72,116.964.563,75.343.563Zm0,27.652c14.765,0,26.735,11.349,26.735,25.348S90.108,78.909,75.343,78.909,48.608,67.561,48.608,53.562,60.578,28.214,75.343,28.214Zm0,99.086a59.543,59.543,0,0,1-44.507-19.644A34.139,34.139,0,0,1,60.76,90.431a7.809,7.809,0,0,1,2.157.317,39.835,39.835,0,0,0,24.851,0,7.808,7.808,0,0,1,2.157-.317,34.139,34.139,0,0,1,29.924,17.225A59.543,59.543,0,0,1,75.343,127.3Z" transform="translate(0 -0.563)" fill="#ffba00"/>
</svg>
