<svg xmlns="http://www.w3.org/2000/svg" width="148.268" height="168.713" viewBox="0 0 148.268 168.713">
  <path id="Icon_awesome-user-tie" data-name="Icon awesome-user-tie" d="M74.134,84.356A42.179,42.179,0,1,0,31.772,42.178,42.267,42.267,0,0,0,74.134,84.356ZM105.839,95.1,90.02,158.168s-10.591-29-10.591-44.814S90.02,94.9,90.02,94.9H58.248l10.591,18.453L58.248,158.168,42.428,95.1A44.3,44.3,0,0,0,0,139.188V152.9a15.856,15.856,0,0,0,15.886,15.817h116.5A15.856,15.856,0,0,0,148.268,152.9V139.188A44.3,44.3,0,0,0,105.839,95.1Z" fill="#ffba00"/>
</svg>
